<?xml version="1.0" encoding="UTF-8" standalone="no"?>
<!-- Created with Inkscape (http://www.inkscape.org/) -->

<svg
   width="464.5639mm"
   height="350.49689mm"
   viewBox="0 0 464.5639 350.49688"
   version="1.1"
   id="svg5"
   sodipodi:docname="SVG.svg"
   inkscape:version="1.1.1 (3bf5ae0d25, 2021-09-20)"
   xmlns:inkscape="http://www.inkscape.org/namespaces/inkscape"
   xmlns:sodipodi="http://sodipodi.sourceforge.net/DTD/sodipodi-0.dtd"
   xmlns:xlink="http://www.w3.org/1999/xlink"
   xmlns="http://www.w3.org/2000/svg"
   xmlns:svg="http://www.w3.org/2000/svg"
   xmlns:a="http://ns.adobe.com/AdobeSVGViewerExtensions/3.0/">
  <sodipodi:namedview
     id="namedview7"
     pagecolor="#535353"
     bordercolor="#999999"
     borderopacity="1"
     inkscape:pageshadow="0"
     inkscape:pageopacity="0"
     inkscape:pagecheckerboard="0"
     inkscape:document-units="mm"
     showgrid="false"
     inkscape:snap-global="false"
     inkscape:zoom="0.20283688"
     inkscape:cx="443.70629"
     inkscape:cy="61.625873"
     inkscape:window-width="1360"
     inkscape:window-height="697"
     inkscape:window-x="-8"
     inkscape:window-y="189"
     inkscape:window-maximized="1"
     inkscape:current-layer="layer1"
     showguides="false"
     inkscape:guide-bbox="true"
     inkscape:snap-bbox="true"
     inkscape:bbox-paths="true"
     inkscape:bbox-nodes="true"
     inkscape:snap-bbox-edge-midpoints="true"
     inkscape:snap-bbox-midpoints="true"
     inkscape:object-paths="true"
     inkscape:snap-intersection-paths="true"
     inkscape:snap-smooth-nodes="true"
     inkscape:snap-midpoints="true"
     inkscape:snap-object-midpoints="true"
     inkscape:snap-center="true"
     inkscape:snap-text-baseline="true"
     inkscape:snap-page="true">
    <sodipodi:guide
       position="-523.26383,-236.59207"
       orientation="1,0"
       id="guide17171" />
    <sodipodi:guide
       position="28.15956,-236.59206"
       orientation="1,0"
       id="guide17173" />
    <sodipodi:guide
       position="288.13106,159.23383"
       orientation="0,-1"
       id="guide7511" />
  </sodipodi:namedview>
  <defs
     id="defs2">
    <linearGradient
       inkscape:collect="always"
       id="linearGradient16830">
      <stop
         style="stop-color:#92d0f5;stop-opacity:1"
         offset="0"
         id="stop16826" />
      <stop
         style="stop-color:#5b8ec1;stop-opacity:1"
         offset="1"
         id="stop16828" />
    </linearGradient>
    <linearGradient
       inkscape:collect="always"
       id="linearGradient4920-2">
      <stop
         style="stop-color:#f4f281;stop-opacity:1"
         offset="0"
         id="stop4916-3" />
      <stop
         style="stop-color:#986525;stop-opacity:1"
         offset="1"
         id="stop4918-8" />
    </linearGradient>
    <linearGradient
       inkscape:collect="always"
       xlink:href="#linearGradient4920-2"
       id="linearGradient4310"
       gradientUnits="userSpaceOnUse"
       gradientTransform="matrix(1.0175342,0,0,1.0175342,420.83491,22.990389)"
       x1="79.784164"
       y1="-12.451863"
       x2="79.322983"
       y2="4.6118011" />
    <linearGradient
       inkscape:collect="always"
       xlink:href="#linearGradient4920-2"
       id="linearGradient4312"
       gradientUnits="userSpaceOnUse"
       gradientTransform="matrix(0.46786769,0,0,0.46786769,443.80282,39.320042)"
       x1="79.784164"
       y1="-12.451863"
       x2="79.322983"
       y2="4.6118011" />
    <defs
       id="defs43">
      <path
         id="SVGID_7_"
         d="m 1988,2228.3 c -38.9,9.9 -79,15.1 -119.2,15.1 -110.6,0 -220.8,-30.7 -309.2,-98.8 -120.9,-93.2 -172.9,-233.6 -172.9,-383.3 0,-149.7 52,-290.1 172.9,-383.3 88.4,-68.1 198.6,-98.8 309.2,-98.8 127.8,0 254.8,46.8 345.9,137.7 l 73.9,-71.6 c -112.5,-110 -262.4,-172.3 -419.8,-172.3 -148.6,0 -295,44.9 -407.4,144.4 -128.7,113.9 -185.6,274.6 -185.6,444 0,175.4 63.4,339.4 199.9,453 110.3,91.8 250.7,135.4 393.2,135.4 54.3,0 108.6,-7.2 161,-21.6 z m 118,110.3 h 126.2 L 2716,1184 h -126.2 l -420.7,1021.4 -354.5,-860.7 c -39.3,5.8 -77.1,15.7 -112.7,29.6 z" />
    </defs>
    <linearGradient
       id="SVGID_9_"
       gradientUnits="userSpaceOnUse"
       x1="1569.1124"
       y1="2289.8569"
       x2="2500.2637"
       y2="1136.7046"
       gradientTransform="translate(2335.5704,703.3557)">
      <stop
         offset="0"
         style="stop-color:#9E6C4C"
         id="stop48" />
      <stop
         offset="0.4"
         style="stop-color:#FDE3A7"
         id="stop50" />
      <stop
         offset="1"
         style="stop-color:#FFD04C"
         id="stop52" />
    </linearGradient>
    <pattern
       id="EMFhbasepattern"
       patternUnits="userSpaceOnUse"
       width="6"
       height="6"
       x="0"
       y="0" />
    <pattern
       id="EMFhbasepattern-0"
       patternUnits="userSpaceOnUse"
       width="6"
       height="6"
       x="0"
       y="0" />
    <linearGradient
       inkscape:collect="always"
       id="linearGradient2087">
      <stop
         style="stop-color:#c8ab37;stop-opacity:1"
         offset="0"
         id="stop2083" />
      <stop
         style="stop-color:#d3bc5f;stop-opacity:1"
         offset="1"
         id="stop2085" />
    </linearGradient>
    <linearGradient
       inkscape:collect="always"
       xlink:href="#linearGradient2087"
       id="linearGradient2907"
       gradientUnits="userSpaceOnUse"
       x1="96.386993"
       y1="193.46742"
       x2="89.056435"
       y2="171.47574" />
    <linearGradient
       inkscape:collect="always"
       xlink:href="#linearGradient2087"
       id="linearGradient7424"
       gradientUnits="userSpaceOnUse"
       gradientTransform="matrix(0.44487733,0,0,0.44487733,26.151462,111.45898)"
       x1="96.386993"
       y1="193.46742"
       x2="89.056435"
       y2="171.47574" />
    <linearGradient
       inkscape:collect="always"
       xlink:href="#linearGradient2087"
       id="linearGradient5103"
       gradientUnits="userSpaceOnUse"
       gradientTransform="matrix(0.50072687,0,0,0.50072687,26.214141,98.097029)"
       x1="96.386993"
       y1="193.46742"
       x2="89.056435"
       y2="171.47574" />
    <linearGradient
       inkscape:collect="always"
       xlink:href="#linearGradient2087"
       id="linearGradient10149"
       gradientUnits="userSpaceOnUse"
       gradientTransform="matrix(0.9944396,0,0,0.9944396,-4.888783,-1.1004874)"
       x1="96.386993"
       y1="193.46742"
       x2="89.056435"
       y2="171.47574" />
    <path
       id="path961"
       d="m 1988,2228.3 c -38.9,9.9 -79,15.1 -119.2,15.1 -110.6,0 -220.8,-30.7 -309.2,-98.8 -120.9,-93.2 -172.9,-233.6 -172.9,-383.3 0,-149.7 52,-290.1 172.9,-383.3 88.4,-68.1 198.6,-98.8 309.2,-98.8 127.8,0 254.8,46.8 345.9,137.7 l 73.9,-71.6 c -112.5,-110 -262.4,-172.3 -419.8,-172.3 -148.6,0 -295,44.9 -407.4,144.4 -128.7,113.9 -185.6,274.6 -185.6,444 0,175.4 63.4,339.4 199.9,453 110.3,91.8 250.7,135.4 393.2,135.4 54.3,0 108.6,-7.2 161,-21.6 z m 118,110.3 h 126.2 L 2716,1184 h -126.2 l -420.7,1021.4 -354.5,-860.7 c -39.3,5.8 -77.1,15.7 -112.7,29.6 z" />
    <clipPath
       clipPathUnits="userSpaceOnUse"
       id="clipPath39471">
      <path
         style="fill:#000000;stroke:none;stroke-width:0.325161px;stroke-linecap:butt;stroke-linejoin:miter;stroke-opacity:1"
         d="M 554.40078,77.712051 V 72.00514 h 38.19826 v 41.42101 h -5.80027 z"
         id="path39473" />
    </clipPath>
    <linearGradient
       id="SVGID_5_"
       gradientUnits="userSpaceOnUse"
       x1="92"
       y1="284.74619"
       x2="651"
       y2="284.74619"
       gradientTransform="matrix(0.09338678,0,0,0.09338678,1094.5814,-36.105317)">
      <stop
         offset="0"
         style="stop-color:#717171"
         id="stop60289" />
      <stop
         offset="0.2319"
         style="stop-color:#B9B9B9"
         id="stop60291" />
      <stop
         offset="0.4615"
         style="stop-color:#E0E0E0"
         id="stop60293" />
      <stop
         offset="0.7641"
         style="stop-color:#B9B9B9"
         id="stop60295" />
      <stop
         offset="1"
         style="stop-color:#717171"
         id="stop60297" />
      <a:midPointStop
         offset="0"
         style="stop-color:#717171" />
      <a:midPointStop
         offset="0.5"
         style="stop-color:#717171" />
      <a:midPointStop
         offset="0.2319"
         style="stop-color:#B9B9B9" />
      <a:midPointStop
         offset="0.5"
         style="stop-color:#B9B9B9" />
      <a:midPointStop
         offset="0.4615"
         style="stop-color:#E0E0E0" />
      <a:midPointStop
         offset="0.5"
         style="stop-color:#E0E0E0" />
      <a:midPointStop
         offset="0.7641"
         style="stop-color:#B9B9B9" />
      <a:midPointStop
         offset="0.5"
         style="stop-color:#B9B9B9" />
      <a:midPointStop
         offset="1"
         style="stop-color:#717171" />
    </linearGradient>
    <linearGradient
       id="SVGID_6_"
       gradientUnits="userSpaceOnUse"
       x1="92"
       y1="426.86859"
       x2="651"
       y2="426.86859"
       gradientTransform="matrix(0.09338678,0,0,0.09338678,1094.5814,-36.105317)">
      <stop
         offset="0"
         style="stop-color:#EBEBEB"
         id="stop60302" />
      <stop
         offset="0.1089"
         style="stop-color:#E9E9E9"
         id="stop60304" />
      <stop
         offset="0.1481"
         style="stop-color:#E2E2E2"
         id="stop60306" />
      <stop
         offset="0.1761"
         style="stop-color:#D6D6D6"
         id="stop60308" />
      <stop
         offset="0.1985"
         style="stop-color:#C5C5C5"
         id="stop60310" />
      <stop
         offset="0.2103"
         style="stop-color:#B9B9B9"
         id="stop60312" />
      <stop
         offset="0.2273"
         style="stop-color:#C5C5C5"
         id="stop60314" />
      <stop
         offset="0.2581"
         style="stop-color:#D4D4D4"
         id="stop60316" />
      <stop
         offset="0.2943"
         style="stop-color:#DDDDDD"
         id="stop60318" />
      <stop
         offset="0.3487"
         style="stop-color:#E0E0E0"
         id="stop60320" />
      <stop
         offset="0.402"
         style="stop-color:#DBDBDB"
         id="stop60322" />
      <stop
         offset="0.461"
         style="stop-color:#CECECE"
         id="stop60324" />
      <stop
         offset="0.5226"
         style="stop-color:#B8B8B8"
         id="stop60326" />
      <stop
         offset="0.5861"
         style="stop-color:#999999"
         id="stop60328" />
      <stop
         offset="0.6505"
         style="stop-color:#717171"
         id="stop60330" />
      <stop
         offset="0.6513"
         style="stop-color:#717171"
         id="stop60332" />
      <stop
         offset="0.6718"
         style="stop-color:#717171"
         id="stop60334" />
      <stop
         offset="0.7"
         style="stop-color:#858585"
         id="stop60336" />
      <stop
         offset="0.7605"
         style="stop-color:#A9A9A9"
         id="stop60338" />
      <stop
         offset="0.8213"
         style="stop-color:#C6C6C6"
         id="stop60340" />
      <stop
         offset="0.8816"
         style="stop-color:#DADADA"
         id="stop60342" />
      <stop
         offset="0.9414"
         style="stop-color:#E7E7E7"
         id="stop60344" />
      <stop
         offset="1"
         style="stop-color:#EBEBEB"
         id="stop60346" />
      <a:midPointStop
         offset="0"
         style="stop-color:#EBEBEB" />
      <a:midPointStop
         offset="0.87"
         style="stop-color:#EBEBEB" />
      <a:midPointStop
         offset="0.2103"
         style="stop-color:#B9B9B9" />
      <a:midPointStop
         offset="0.2167"
         style="stop-color:#B9B9B9" />
      <a:midPointStop
         offset="0.3487"
         style="stop-color:#E0E0E0" />
      <a:midPointStop
         offset="0.6864"
         style="stop-color:#E0E0E0" />
      <a:midPointStop
         offset="0.6513"
         style="stop-color:#717171" />
      <a:midPointStop
         offset="0.3716"
         style="stop-color:#717171" />
      <a:midPointStop
         offset="0.6718"
         style="stop-color:#717171" />
      <a:midPointStop
         offset="0.2969"
         style="stop-color:#717171" />
      <a:midPointStop
         offset="1"
         style="stop-color:#EBEBEB" />
    </linearGradient>
    <linearGradient
       id="SVGID_2_"
       gradientUnits="userSpaceOnUse"
       x1="103.59634"
       y1="548.38776"
       x2="643.42419"
       y2="548.38776"
       gradientTransform="matrix(0.09338678,0,0,0.09338678,1094.5814,-36.105317)">
      <stop
         offset="0"
         style="stop-color:#717171"
         id="stop60214" />
      <stop
         offset="0.159"
         style="stop-color:#EBEBEB"
         id="stop60216" />
      <stop
         offset="0.3846"
         style="stop-color:#E0E0E0"
         id="stop60218" />
      <stop
         offset="0.7333"
         style="stop-color:#717171"
         id="stop60220" />
      <stop
         offset="1"
         style="stop-color:#EBEBEB"
         id="stop60222" />
      <a:midPointStop
         offset="0"
         style="stop-color:#717171" />
      <a:midPointStop
         offset="0.5"
         style="stop-color:#717171" />
      <a:midPointStop
         offset="0.159"
         style="stop-color:#EBEBEB" />
      <a:midPointStop
         offset="0.5"
         style="stop-color:#EBEBEB" />
      <a:midPointStop
         offset="0.3846"
         style="stop-color:#E0E0E0" />
      <a:midPointStop
         offset="0.5"
         style="stop-color:#E0E0E0" />
      <a:midPointStop
         offset="0.7333"
         style="stop-color:#717171" />
      <a:midPointStop
         offset="0.5"
         style="stop-color:#717171" />
      <a:midPointStop
         offset="1"
         style="stop-color:#EBEBEB" />
    </linearGradient>
    <linearGradient
       id="SVGID_4_"
       gradientUnits="userSpaceOnUse"
       x1="99.39534"
       y1="836.15594"
       x2="632.92175"
       y2="836.15594"
       gradientTransform="matrix(0.09338678,0,0,0.09338678,1094.5814,-36.105317)">
      <stop
         offset="0"
         style="stop-color:#EBEBEB"
         id="stop60240" />
      <stop
         offset="0.1089"
         style="stop-color:#E9E9E9"
         id="stop60242" />
      <stop
         offset="0.1481"
         style="stop-color:#E2E2E2"
         id="stop60244" />
      <stop
         offset="0.1761"
         style="stop-color:#D6D6D6"
         id="stop60246" />
      <stop
         offset="0.1985"
         style="stop-color:#C5C5C5"
         id="stop60248" />
      <stop
         offset="0.2103"
         style="stop-color:#B9B9B9"
         id="stop60250" />
      <stop
         offset="0.2273"
         style="stop-color:#C5C5C5"
         id="stop60252" />
      <stop
         offset="0.2581"
         style="stop-color:#D4D4D4"
         id="stop60254" />
      <stop
         offset="0.2943"
         style="stop-color:#DDDDDD"
         id="stop60256" />
      <stop
         offset="0.3487"
         style="stop-color:#E0E0E0"
         id="stop60258" />
      <stop
         offset="0.402"
         style="stop-color:#DBDBDB"
         id="stop60260" />
      <stop
         offset="0.461"
         style="stop-color:#CECECE"
         id="stop60262" />
      <stop
         offset="0.5226"
         style="stop-color:#B8B8B8"
         id="stop60264" />
      <stop
         offset="0.5861"
         style="stop-color:#999999"
         id="stop60266" />
      <stop
         offset="0.6505"
         style="stop-color:#717171"
         id="stop60268" />
      <stop
         offset="0.6513"
         style="stop-color:#717171"
         id="stop60270" />
      <stop
         offset="0.6718"
         style="stop-color:#717171"
         id="stop60272" />
      <stop
         offset="0.7"
         style="stop-color:#858585"
         id="stop60274" />
      <stop
         offset="0.7605"
         style="stop-color:#A9A9A9"
         id="stop60276" />
      <stop
         offset="0.8213"
         style="stop-color:#C6C6C6"
         id="stop60278" />
      <stop
         offset="0.8816"
         style="stop-color:#DADADA"
         id="stop60280" />
      <stop
         offset="0.9414"
         style="stop-color:#E7E7E7"
         id="stop60282" />
      <stop
         offset="1"
         style="stop-color:#EBEBEB"
         id="stop60284" />
      <a:midPointStop
         offset="0"
         style="stop-color:#EBEBEB" />
      <a:midPointStop
         offset="0.87"
         style="stop-color:#EBEBEB" />
      <a:midPointStop
         offset="0.2103"
         style="stop-color:#B9B9B9" />
      <a:midPointStop
         offset="0.2167"
         style="stop-color:#B9B9B9" />
      <a:midPointStop
         offset="0.3487"
         style="stop-color:#E0E0E0" />
      <a:midPointStop
         offset="0.6864"
         style="stop-color:#E0E0E0" />
      <a:midPointStop
         offset="0.6513"
         style="stop-color:#717171" />
      <a:midPointStop
         offset="0.3716"
         style="stop-color:#717171" />
      <a:midPointStop
         offset="0.6718"
         style="stop-color:#717171" />
      <a:midPointStop
         offset="0.2969"
         style="stop-color:#717171" />
      <a:midPointStop
         offset="1"
         style="stop-color:#EBEBEB" />
    </linearGradient>
    <linearGradient
       id="SVGID_11_"
       gradientUnits="userSpaceOnUse"
       x1="754"
       y1="284.74619"
       x2="1313"
       y2="284.74619"
       gradientTransform="matrix(-0.09338678,0,0,0.09338678,1126.175,-2.5321756)">
      <stop
         offset="0"
         style="stop-color:#3D423C"
         id="stop60445" />
      <stop
         offset="0.2319"
         style="stop-color:#B2B39F"
         id="stop60447" />
      <stop
         offset="0.4615"
         style="stop-color:#F7F7E7"
         id="stop60449" />
      <stop
         offset="0.7641"
         style="stop-color:#B2B39F"
         id="stop60451" />
      <stop
         offset="1"
         style="stop-color:#3D423C"
         id="stop60453" />
      <a:midPointStop
         offset="0"
         style="stop-color:#3D423C" />
      <a:midPointStop
         offset="0.5"
         style="stop-color:#3D423C" />
      <a:midPointStop
         offset="0.2319"
         style="stop-color:#B2B39F" />
      <a:midPointStop
         offset="0.5"
         style="stop-color:#B2B39F" />
      <a:midPointStop
         offset="0.4615"
         style="stop-color:#F7F7E7" />
      <a:midPointStop
         offset="0.5"
         style="stop-color:#F7F7E7" />
      <a:midPointStop
         offset="0.7641"
         style="stop-color:#B2B39F" />
      <a:midPointStop
         offset="0.5"
         style="stop-color:#B2B39F" />
      <a:midPointStop
         offset="1"
         style="stop-color:#3D423C" />
    </linearGradient>
    <linearGradient
       id="SVGID_9_-0"
       gradientUnits="userSpaceOnUse"
       x1="1312.2494"
       y1="689.12109"
       x2="766.12"
       y2="689.12109"
       gradientTransform="matrix(-0.09338678,0,0,0.09338678,1126.175,-2.5321756)">
      <stop
         offset="0"
         style="stop-color:#3D423C"
         id="stop60379" />
      <stop
         offset="0.2319"
         style="stop-color:#B2B39F"
         id="stop60381" />
      <stop
         offset="0.4615"
         style="stop-color:#F7F7E7"
         id="stop60383" />
      <stop
         offset="0.7641"
         style="stop-color:#B2B39F"
         id="stop60385" />
      <stop
         offset="1"
         style="stop-color:#3D423C"
         id="stop60387" />
      <a:midPointStop
         offset="0"
         style="stop-color:#3D423C" />
      <a:midPointStop
         offset="0.5"
         style="stop-color:#3D423C" />
      <a:midPointStop
         offset="0.2319"
         style="stop-color:#B2B39F" />
      <a:midPointStop
         offset="0.5"
         style="stop-color:#B2B39F" />
      <a:midPointStop
         offset="0.4615"
         style="stop-color:#F7F7E7" />
      <a:midPointStop
         offset="0.5"
         style="stop-color:#F7F7E7" />
      <a:midPointStop
         offset="0.7641"
         style="stop-color:#B2B39F" />
      <a:midPointStop
         offset="0.5"
         style="stop-color:#B2B39F" />
      <a:midPointStop
         offset="1"
         style="stop-color:#3D423C" />
    </linearGradient>
    <linearGradient
       id="linearGradient478"
       spreadMethod="pad"
       gradientTransform="matrix(6250,0,0,-6250,2357.98,2737.2)"
       gradientUnits="userSpaceOnUse"
       y2="0"
       x2="1"
       y1="0"
       x1="0">
      <stop
         id="stop472-5"
         offset="0"
         style="stop-opacity:1;stop-color:#b1acae" />
      <stop
         id="stop474-6"
         offset="0.582369"
         style="stop-opacity:1;stop-color:#ffffff" />
      <stop
         id="stop476-5"
         offset="1"
         style="stop-opacity:1;stop-color:#3c3935" />
    </linearGradient>
    <linearGradient
       id="linearGradient294"
       spreadMethod="pad"
       gradientTransform="matrix(6250,0,0,-6250,10228.4,10954.8)"
       gradientUnits="userSpaceOnUse"
       y2="0"
       x2="1"
       y1="0"
       x1="0">
      <stop
         id="stop278-8"
         offset="0"
         style="stop-opacity:1;stop-color:#3c3935" />
      <stop
         id="stop280-3"
         offset="0.33566326"
         style="stop-opacity:1;stop-color:#ffffff" />
      <stop
         id="stop282"
         offset="0.365591"
         style="stop-opacity:1;stop-color:#ffffff" />
      <stop
         id="stop284"
         offset="0.38605468"
         style="stop-opacity:1;stop-color:#ffffff" />
      <stop
         id="stop286"
         offset="0.693548"
         style="stop-opacity:1;stop-color:#d6c8e6" />
      <stop
         id="stop288"
         offset="0.73400704"
         style="stop-opacity:1;stop-color:#d6c8e6" />
      <stop
         id="stop290-2"
         offset="0.980423"
         style="stop-opacity:1;stop-color:#726e70" />
      <stop
         id="stop292-2"
         offset="1"
         style="stop-opacity:1;stop-color:#726e70" />
    </linearGradient>
    <linearGradient
       id="linearGradient60"
       spreadMethod="pad"
       gradientTransform="matrix(4657.06,0,0,-4657.06,6023.6,11759.7)"
       gradientUnits="userSpaceOnUse"
       y2="0"
       x2="1"
       y1="0"
       x1="0">
      <stop
         id="stop52-0"
         offset="0"
         style="stop-opacity:1;stop-color:#f9d144" />
      <stop
         id="stop54"
         offset="0.319512"
         style="stop-opacity:1;stop-color:#7d441b" />
      <stop
         id="stop56"
         offset="0.728839"
         style="stop-opacity:1;stop-color:#f8f561" />
      <stop
         id="stop58-8"
         offset="1"
         style="stop-opacity:1;stop-color:#bc891d" />
    </linearGradient>
    <linearGradient
       id="linearGradient512"
       spreadMethod="pad"
       gradientTransform="matrix(4657.06,0,0,-4657.06,21287.2,3440.4)"
       gradientUnits="userSpaceOnUse"
       y2="0.26283979"
       x2="-1.0740089"
       y1="0.26283979"
       x1="-1.6976351">
      <stop
         id="stop502"
         offset="0"
         style="stop-opacity:1;stop-color:#e3c639" />
      <stop
         id="stop504"
         offset="0.24576"
         style="stop-opacity:1;stop-color:#774a1b" />
      <stop
         id="stop506"
         offset="0.510363"
         style="stop-opacity:1;stop-color:#e1b832" />
      <stop
         id="stop508"
         offset="0.747841"
         style="stop-opacity:1;stop-color:#f7f573" />
      <stop
         id="stop510-7"
         offset="1"
         style="stop-opacity:1;stop-color:#b97c1c" />
    </linearGradient>
    <linearGradient
       id="linearGradient392"
       spreadMethod="pad"
       gradientTransform="matrix(4657.06,0,0,-4657.06,21287.2,6213.45)"
       gradientUnits="userSpaceOnUse"
       y2="0.4752059"
       x2="-1.0710392"
       y1="0.4752059"
       x1="-1.6946654">
      <stop
         id="stop374"
         offset="0"
         style="stop-opacity:1;stop-color:#f6f67f" />
      <stop
         id="stop376"
         offset="0.0902439"
         style="stop-opacity:1;stop-color:#efd752" />
      <stop
         id="stop378-8"
         offset="0.192683"
         style="stop-opacity:1;stop-color:#a77e1e" />
      <stop
         id="stop380-9"
         offset="0.280488"
         style="stop-opacity:1;stop-color:#efd752" />
      <stop
         id="stop382-6"
         offset="0.485366"
         style="stop-opacity:1;stop-color:#f6f67f" />
      <stop
         id="stop384-2"
         offset="0.631707"
         style="stop-opacity:1;stop-color:#efd752" />
      <stop
         id="stop386"
         offset="0.695122"
         style="stop-opacity:1;stop-color:#a77e1e" />
      <stop
         id="stop388"
         offset="0.853659"
         style="stop-opacity:1;stop-color:#f9e452" />
      <stop
         id="stop390"
         offset="1"
         style="stop-opacity:1;stop-color:#eeef67" />
    </linearGradient>
    <linearGradient
       id="linearGradient460"
       spreadMethod="pad"
       gradientTransform="matrix(4657.06,0,0,-4657.06,11111.5,3440.4)"
       gradientUnits="userSpaceOnUse"
       y2="0"
       x2="1"
       y1="0"
       x1="0">
      <stop
         id="stop450-6"
         offset="0"
         style="stop-opacity:1;stop-color:#e3c639" />
      <stop
         id="stop452"
         offset="0.188256"
         style="stop-opacity:1;stop-color:#805a1d" />
      <stop
         id="stop454"
         offset="0.426871"
         style="stop-opacity:1;stop-color:#e3c639" />
      <stop
         id="stop456"
         offset="0.809204"
         style="stop-opacity:1;stop-color:#f9f679" />
      <stop
         id="stop458"
         offset="1"
         style="stop-opacity:1;stop-color:#f7f573" />
    </linearGradient>
    <linearGradient
       id="linearGradient488"
       spreadMethod="pad"
       gradientTransform="matrix(4657.06,0,0,-4657.06,16199.3,3440.4)"
       gradientUnits="userSpaceOnUse"
       y2="0.14674215"
       x2="0.0034687151"
       y1="0.14674215"
       x1="-0.75751406">
      <stop
         id="stop474"
         offset="0"
         style="stop-opacity:1;stop-color:#805a1d" />
      <stop
         id="stop476"
         offset="0.189119"
         style="stop-opacity:1;stop-color:#ebd548" />
      <stop
         id="stop478"
         offset="0.389414"
         style="stop-opacity:1;stop-color:#f9f679" />
      <stop
         id="stop480"
         offset="0.573129"
         style="stop-opacity:1;stop-color:#e3c639" />
      <stop
         id="stop482"
         offset="0.746114"
         style="stop-opacity:1;stop-color:#805a1d" />
      <stop
         id="stop484"
         offset="0.821244"
         style="stop-opacity:1;stop-color:#89641e" />
      <stop
         id="stop486"
         offset="1"
         style="stop-opacity:1;stop-color:#e3c639" />
    </linearGradient>
    <linearGradient
       id="linearGradient334"
       spreadMethod="pad"
       gradientTransform="matrix(4657.06,0,0,-4657.06,11111.5,6213.45)"
       gradientUnits="userSpaceOnUse"
       y2="0"
       x2="1"
       y1="0"
       x1="0">
      <stop
         id="stop316-8"
         offset="0"
         style="stop-opacity:1;stop-color:#ebd548" />
      <stop
         id="stop318-6"
         offset="0.0457686"
         style="stop-opacity:1;stop-color:#ebd548" />
      <stop
         id="stop320"
         offset="0.234888"
         style="stop-opacity:1;stop-color:#805a1d" />
      <stop
         id="stop322"
         offset="0.316926"
         style="stop-opacity:1;stop-color:#ebd548" />
      <stop
         id="stop324"
         offset="0.389414"
         style="stop-opacity:1;stop-color:#f9f679" />
      <stop
         id="stop326"
         offset="0.483319"
         style="stop-opacity:1;stop-color:#e3c639" />
      <stop
         id="stop328"
         offset="0.746114"
         style="stop-opacity:1;stop-color:#805a1d" />
      <stop
         id="stop330"
         offset="0.83565"
         style="stop-opacity:1;stop-color:#e3c639" />
      <stop
         id="stop332"
         offset="1"
         style="stop-opacity:1;stop-color:#e3c639" />
    </linearGradient>
    <linearGradient
       id="linearGradient414"
       spreadMethod="pad"
       gradientTransform="matrix(4657.06,0,0,-4657.06,935.732,3440.4)"
       gradientUnits="userSpaceOnUse"
       y2="0"
       x2="1"
       y1="0"
       x1="0">
      <stop
         id="stop404-0"
         offset="0"
         style="stop-opacity:1;stop-color:#f0f268" />
      <stop
         id="stop406-9"
         offset="0.348014"
         style="stop-opacity:1;stop-color:#ebd848" />
      <stop
         id="stop408"
         offset="0.575715"
         style="stop-opacity:1;stop-color:#a77e1e" />
      <stop
         id="stop410"
         offset="0.884827"
         style="stop-opacity:1;stop-color:#e6cc4b" />
      <stop
         id="stop412"
         offset="1"
         style="stop-opacity:1;stop-color:#f5f688" />
    </linearGradient>
    <linearGradient
       id="linearGradient210-2"
       spreadMethod="pad"
       gradientTransform="matrix(4657.06,0,0,-4657.06,11111.5,8986.55)"
       gradientUnits="userSpaceOnUse"
       y2="0"
       x2="1"
       y1="0"
       x1="0">
      <stop
         id="stop198"
         offset="0"
         style="stop-opacity:1;stop-color:#f7f78d" />
      <stop
         id="stop200"
         offset="0.168394"
         style="stop-opacity:1;stop-color:#f8f561" />
      <stop
         id="stop202-3"
         offset="0.560564"
         style="stop-opacity:1;stop-color:#bc891d" />
      <stop
         id="stop204-5"
         offset="0.744387"
         style="stop-opacity:1;stop-color:#83461b" />
      <stop
         id="stop206-2"
         offset="0.943983"
         style="stop-opacity:1;stop-color:#bc891d" />
      <stop
         id="stop208-3"
         offset="1"
         style="stop-opacity:1;stop-color:#f8f561" />
    </linearGradient>
    <linearGradient
       inkscape:collect="always"
       xlink:href="#linearGradient16830"
       id="linearGradient16832"
       x1="724.56897"
       y1="-569.43854"
       x2="724.56897"
       y2="-529.08527"
       gradientUnits="userSpaceOnUse"
       gradientTransform="matrix(1.2344123,0,0,1.2344123,-172.78493,133.62614)" />
    <linearGradient
       inkscape:collect="always"
       xlink:href="#linearGradient16830"
       id="linearGradient18513"
       x1="732.40906"
       y1="-515.01929"
       x2="732.40906"
       y2="-483.65906"
       gradientUnits="userSpaceOnUse"
       gradientTransform="matrix(1.1583345,0,0,1.1583345,-116.70804,91.58831)" />
    <linearGradient
       inkscape:collect="always"
       xlink:href="#linearGradient16830"
       id="linearGradient19011"
       x1="696.85931"
       y1="-679.88739"
       x2="731.50311"
       y2="-550.59509"
       gradientUnits="userSpaceOnUse"
       gradientTransform="matrix(0.90703198,0,0,0.90703198,-272.047,-49.161489)" />
    <linearGradient
       inkscape:collect="always"
       xlink:href="#linearGradient16830"
       id="linearGradient20312"
       x1="-525.05243"
       y1="887.4126"
       x2="-525.05243"
       y2="9.8601398"
       gradientUnits="userSpaceOnUse" />
  </defs>
  <g
     inkscape:label="Camada 1"
     inkscape:groupmode="layer"
     id="layer1"
     transform="translate(-504.81665,719.32208)">
    <rect
       style="fill:#0b0b0b;fill-opacity:1;stroke-width:0.227857"
       id="rect199"
       width="464.5639"
       height="350.49689"
       x="504.81665"
       y="-719.32208" />
    <g
       id="g21646"
       transform="translate(1.1332782e-4,58.902538)">
      <g
         id="g21636">
        <text
           xml:space="preserve"
           style="font-style:normal;font-variant:normal;font-weight:normal;font-stretch:normal;font-size:40.5135px;line-height:1.25;font-family:'Bebas Kai';-inkscape-font-specification:'Bebas Kai';fill:url(#linearGradient18513);fill-opacity:1;stroke-width:0.675225"
           x="645.8623"
           y="-474.76477"
           id="text2866"><tspan
             sodipodi:role="line"
             id="tspan2864"
             style="font-style:normal;font-variant:normal;font-weight:normal;font-stretch:normal;font-family:'Bebas Kai';-inkscape-font-specification:'Bebas Kai';fill:url(#linearGradient18513);fill-opacity:1;stroke-width:0.675225"
             x="645.8623"
             y="-474.76477">Climatização</tspan></text>
        <text
           xml:space="preserve"
           style="font-style:normal;font-variant:normal;font-weight:normal;font-stretch:normal;font-size:83.6075px;line-height:1.25;font-family:Pirulen;-inkscape-font-specification:Pirulen;fill:url(#linearGradient16832);fill-opacity:1;stroke-width:1.39345"
           x="633.74408"
           y="-511.52231"
           id="text4578"><tspan
             sodipodi:role="line"
             id="tspan4576"
             style="font-style:normal;font-variant:normal;font-weight:normal;font-stretch:normal;font-family:'Conthrax Bold';-inkscape-font-specification:'Conthrax Bold, ';fill:url(#linearGradient16832);fill-opacity:1;stroke-width:1.39345"
             x="633.74408"
             y="-511.52231">Vex</tspan></text>
      </g>
      <g
         id="g20280"
         transform="matrix(0.75899751,0,0,0.75899751,458.27636,-204.11844)">
        <path
           style="fill:url(#linearGradient19011);fill-opacity:1;stroke-width:0.239985"
           d="m 365.58239,-505.69006 c -1.51742,-0.31133 -2.27987,-1.30569 -2.27987,-2.97332 0,-2.17593 1.76338,-3.51052 3.82306,-2.89343 2.19896,0.65883 2.65862,3.98238 0.73667,5.32633 -0.67858,0.4745 -1.57062,0.68594 -2.27986,0.54042 z m -1.20849,-9.73964 c -0.65857,-0.56646 -0.7148,-0.8352 -1.21469,-5.80417 l -0.14396,-1.43092 -1.22884,1.2882 c -1.26069,1.32155 -3.7023,3.32582 -4.66352,3.82817 -0.70864,0.37036 -1.49991,-0.0358 -1.49991,-0.76984 0,-1.17725 1.66502,-3.97917 4.07055,-6.84998 1.34362,-1.6035 2.65131,-3.02697 2.90597,-3.16326 0.41417,-0.22165 0.46304,-0.52551 0.46304,-2.8792 0,-1.44727 -0.0458,-2.6314 -0.10177,-2.6314 -0.056,0 -1.16287,1.06661 -2.45985,2.37025 -2.8834,2.8982 -4.93706,4.04556 -5.93504,3.31582 -0.59388,-0.43426 -0.75137,-2.08148 -0.32004,-3.34739 0.47041,-1.38055 1.57141,-3.11519 1.86291,-2.93504 0.12575,0.0778 0.171,-0.01 0.10057,-0.19252 -0.17025,-0.44364 3.89789,-4.73205 5.43201,-5.72613 l 1.1812,-0.76539 -0.013,-3.0194 -0.013,-3.0194 -2.20687,2.39613 c -4.13166,4.48599 -5.98786,6.21492 -7.41145,6.90331 -1.66531,0.80528 -2.35252,0.82896 -3.03308,0.10454 -0.83062,-0.88415 -0.7055,-2.37697 0.37813,-4.51146 0.52376,-1.03169 1.03281,-1.74512 1.21777,-1.70675 0.17565,0.0365 0.24604,-0.0502 0.15734,-0.19374 -0.0883,-0.14282 0.69017,-1.30643 1.72989,-2.58579 1.03971,-1.27936 2.30138,-2.89355 2.80371,-3.58709 0.50692,-0.69988 1.02717,-1.19062 1.16916,-1.10285 0.14459,0.0894 0.18623,0.0455 0.0958,-0.10093 -0.33219,-0.5375 2.78426,-3.6229 4.32196,-4.27889 l 0.75626,-0.32262 -0.12499,-4.86638 c -0.0688,-2.67652 -0.15422,-4.89955 -0.18996,-4.94008 -0.0358,-0.0406 -1.02151,1.14742 -2.1906,2.63985 -9.1082,11.62729 -13.11095,15.94389 -17.42103,18.78698 -1.33235,0.87886 -1.39386,0.89473 -1.97988,0.51077 -0.3583,-0.23478 -0.60477,-0.62285 -0.60477,-0.95224 0,-0.69348 1.92055,-4.47711 3.49479,-6.88505 2.29615,-3.5121 6.88476,-9.57803 7.13048,-9.42617 0.13944,0.0862 0.17648,0.0373 0.0846,-0.11152 -0.0901,-0.1457 1.21128,-2.24127 2.89183,-4.65681 1.68056,-2.41555 4.33771,-6.27875 5.90479,-8.58491 l 2.84922,-4.19302 -0.15264,-5.40056 c -0.0839,-2.97032 -0.18684,-5.43476 -0.22863,-5.47655 -0.0418,-0.0418 -2.0063,1.18164 -4.36558,2.71874 -2.35926,1.53711 -4.72156,3.07229 -5.24952,3.41153 -3.1814,2.04416 -3.09065,1.94414 -3.31517,3.65346 -0.14058,1.07039 -2.33505,7.74877 -5.20461,15.83903 -0.81929,2.30987 -2.31846,6.69738 -3.33151,9.75003 -1.13614,3.42363 -2.11137,5.93914 -2.5452,6.56517 -1.5764,2.27476 -3.69884,2.8327 -5.24142,1.37787 -1.6929,-1.59661 -1.70085,-4.03944 -0.0273,-8.38578 0.47177,-1.22525 1.75323,-4.65756 2.84769,-7.62738 2.21676,-6.01521 4.35608,-11.50938 4.85037,-12.45663 0.17868,-0.34242 0.32555,-0.75253 0.32636,-0.91137 7.2e-4,-0.15883 -1.83851,0.89795 -4.0874,2.34839 -2.24887,1.45044 -4.20944,2.56265 -4.35681,2.47158 -0.1574,-0.0973 -0.20105,-0.0573 -0.10586,0.0967 0.0891,0.14428 0.0125,0.34995 -0.17031,0.45707 -0.1968,0.11526 -0.4492,1.00388 -0.61864,2.17802 -0.15742,1.09081 -0.65203,3.14268 -1.09916,4.55972 -0.44713,1.41704 -1.30833,4.46632 -1.91378,6.77619 -1.58987,6.06548 -2.5861,8.69036 -3.66992,9.66967 -1.16827,1.05563 -3.47196,0.61642 -4.38374,-0.83576 -0.42496,-0.67687 -0.47719,-1.03064 -0.35299,-2.3911 0.26941,-2.95071 1.20842,-6.21722 3.52352,-12.25727 0.54598,-1.42443 0.93371,-2.64885 0.86166,-2.72091 -0.0986,-0.0986 -4.96384,2.93274 -5.42698,3.38144 -0.0458,0.0443 -0.39161,1.63409 -0.76859,3.53284 -0.377,1.89874 -0.97827,4.24227 -1.33618,5.20786 -1.19926,3.23544 -3.14605,4.47198 -4.80032,3.04903 -0.9192,-0.79067 -1.04762,-2.72794 -0.35735,-5.39089 0.27832,-1.07369 0.50603,-2.00665 0.50603,-2.07327 0,-0.0666 -0.66472,0.3085 -1.47713,0.83359 -0.81242,0.52509 -1.5721,0.95471 -1.6882,0.95471 -0.1161,0 -1.02795,1.67185 -2.02635,3.71523 -1.99245,4.07783 -3.21537,5.6442 -4.40659,5.6442 -1.09597,0 -1.33497,-0.52498 -1.01941,-2.23919 0.1499,-0.81433 0.34725,-1.73244 0.43856,-2.04025 0.16049,-0.54108 0.10755,-0.53026 -1.59186,0.32556 -1.43057,0.72043 -1.93523,0.86145 -2.71056,0.75747 -1.33207,-0.17868 -2.41345,-1.28634 -2.41345,-2.47212 0,-0.76806 0.18273,-1.05368 1.39776,-2.18462 0.76878,-0.71556 1.99003,-1.69428 2.71393,-2.17491 1.22888,-0.81594 1.27862,-0.88514 0.75011,-1.04364 -0.31133,-0.0933 -1.64599,-0.46583 -2.96592,-0.82774 -4.19088,-1.14906 -5.13434,-1.78511 -4.31419,-2.90851 0.6277,-0.8598 9.22725,-0.64361 11.98324,0.30126 l 0.94944,0.32551 2.05037,-1.35759 c 1.12771,-0.74667 2.09538,-1.38967 2.15037,-1.4289 0.23162,-0.16517 -0.2514,-0.30591 -2.98197,-0.86888 -3.21255,-0.66234 -4.27206,-1.05206 -5.36855,-1.97471 -1.61233,-1.35667 -0.48577,-2.93739 2.48482,-3.48653 2.38876,-0.44158 8.00227,0.3943 10.66105,1.58749 l 1.40785,0.6318 2.4349,-1.62118 c 1.33921,-0.89164 2.35085,-1.69757 2.24809,-1.79093 -0.10273,-0.0933 -1.96873,-0.4601 -4.1466,-0.81496 -6.0095,-0.9792 -7.57698,-1.46104 -9.53942,-2.93234 -0.6074,-0.45542 -0.77995,-0.76201 -0.77995,-1.38592 0,-1.18044 0.62362,-1.75223 2.39985,-2.2004 1.7486,-0.4412 4.19941,-0.38535 10.90225,0.24844 4.8181,0.45558 6.17934,0.73335 7.77309,1.5862 l 1.27638,0.68303 1.72343,-1.15159 c 0.9479,-0.63338 2.85737,-1.89057 4.24329,-2.79375 l 2.51986,-1.64217 -4.22207,-0.41485 c -13.07176,-1.28437 -19.23163,-2.32401 -23.52401,-3.97028 -2.18333,-0.83737 -2.97095,-1.49206 -2.76798,-2.30075 0.17964,-0.71571 0.37501,-0.79803 2.67573,-1.12743 2.42569,-0.34729 7.31865,-0.304 13.66163,0.12087 8.15388,0.5462 24.15353,1.0272 24.73605,0.74365 0.26399,-0.12848 1.88389,-1.15334 3.59979,-2.27744 1.71589,-1.12411 4.38839,-2.86711 5.93887,-3.87336 l 2.81908,-1.82951 -6.53885,-4.66662 c -3.59636,-2.56666 -6.77423,-4.70008 -7.06193,-4.74095 -0.28769,-0.0409 -1.09728,0.0962 -1.79909,0.30462 -1.62212,0.48173 -5.53062,0.74626 -17.9566,1.21535 -5.47767,0.20679 -10.89761,0.47182 -12.04433,0.58897 -3.13671,0.32045 -5.67142,-0.14786 -6.87733,-1.27067 -1.70127,-1.584 -1.63896,-3.47614 0.15659,-4.75482 1.90634,-1.35758 2.51752,-1.43951 12.64545,-1.69536 5.14768,-0.13002 11.3303,-0.17726 13.73915,-0.1049 3.85388,0.11574 5.08907,-0.004 4.07976,-0.39294 -0.16499,-0.0637 -2.28376,-1.5361 -4.70839,-3.27199 l -4.4084,-3.15619 -1.23126,0.45936 c -0.67718,0.25264 -2.20319,0.57476 -3.39112,0.71582 -10.98668,1.30454 -13.82072,1.58018 -16.31901,1.5872 -2.39433,0.006 -2.98829,-0.0653 -3.52311,-0.42736 -1.55299,-1.05126 -1.99265,-3.20619 -0.89663,-4.39475 1.37363,-1.48963 3.80894,-1.9524 11.85929,-2.2536 3.56378,-0.13334 6.62382,-0.26738 6.80009,-0.29789 0.17626,-0.0305 -0.36371,-0.52991 -1.19994,-1.10978 -0.83621,-0.57987 -2.0903,-1.48622 -2.78684,-2.01408 l -1.26645,-0.9598 -3.77325,0.69056 c -4.56372,0.83521 -8.08179,0.9331 -9.43966,0.26265 -1.4798,-0.73067 -1.83638,-2.26489 -0.8099,-3.48477 0.77859,-0.9253 2.346,-1.44739 4.9063,-1.63424 1.12748,-0.0823 2.18643,-0.22129 2.35318,-0.30889 0.19594,-0.10298 -0.22855,-0.54678 -1.19992,-1.25458 -1.64924,-1.20177 -1.45341,-1.15916 -7.50277,-1.63247 -2.92656,-0.22897 -4.66903,-0.66807 -5.44776,-1.37281 -0.49664,-0.44946 -0.57379,-1.58345 -0.13191,-1.93895 0.40228,-0.32364 2.61534,-0.77736 3.79159,-0.77736 0.52148,0 0.94792,-0.0811 0.94766,-0.18 -2.3e-4,-0.099 -0.56378,-0.55797 -1.2523,-1.01994 -0.6885,-0.46198 -2.25419,-1.82702 -3.47932,-3.03344 -1.99354,-1.96312 -2.22749,-2.28449 -2.22749,-3.05982 0,-0.96449 0.6705,-1.82626 1.4209,-1.82626 1.10347,0 6.70053,2.83165 9.34834,4.72948 l 0.56986,0.40846 -0.14448,-1.06907 c -0.0795,-0.58798 -0.21483,-2.31633 -0.30084,-3.84078 -0.13663,-2.42213 -0.1049,-2.8232 0.25173,-3.17981 0.83216,-0.83216 1.27185,-0.5276 2.35588,1.6318 1.0122,2.01629 2.19713,5.70963 2.59885,8.10038 l 0.29222,1.73911 2.03848,1.38454 c 1.12117,0.7615 2.08044,1.34259 2.13172,1.29129 0.0513,-0.0513 -0.0649,-0.89033 -0.25825,-1.86455 -0.60468,-3.04708 -0.68023,-3.81657 -0.50918,-5.18561 0.21795,-1.74444 0.97039,-2.58728 1.97125,-2.20807 1.28546,0.48703 2.63228,2.15558 3.34973,4.14989 0.61318,1.70446 1.51829,6.44504 1.52027,7.96255 l 0.002,1.45036 2.16385,1.48946 c 1.19011,0.8192 2.22831,1.48945 2.30711,1.48945 0.21008,0 -0.10634,-1.93226 -0.78613,-4.7997 -0.64626,-2.7263 -0.97292,-6.34926 -0.70245,-7.79103 0.20564,-1.09621 1.16969,-2.04839 2.07393,-2.04839 1.74022,0 3.35471,2.85656 5.15425,9.11946 2.02748,7.05621 2.29241,8.2063 2.2355,9.70466 l -0.0542,1.42517 1.54355,1.04422 c 0.84894,0.57433 1.51387,1.15596 1.4776,1.29251 -0.0362,0.13656 0.039,0.18342 0.1673,0.10418 0.12827,-0.0793 1.06501,0.45266 2.08162,1.18209 1.9494,1.39871 2.41098,1.59358 2.14651,0.90626 -0.87131,-2.26447 -4.57202,-17.16061 -5.03069,-20.24959 -0.41912,-2.82266 -0.50044,-6.8174 -0.15716,-7.7203 0.12187,-0.32052 0.45754,-0.64448 0.74594,-0.7199 0.78523,-0.20535 1.55518,0.76281 3.01517,3.79128 1.42302,2.95178 1.90814,4.25592 3.70482,9.95941 1.61209,5.11753 3.37842,10.29118 5.85823,17.15897 l 1.99303,5.51967 3.14665,2.27986 c 6.41308,4.64648 7.80856,5.64184 8.03734,5.73275 0.15153,0.0602 0.17656,-2.80742 0.0708,-8.11932 -0.1822,-9.15715 -0.14244,-8.94164 -1.90572,-10.33267 -1.16323,-0.91764 -4.88151,-5.33792 -9.68991,-11.51931 -4.73997,-6.0934 -7.7607,-9.88394 -8.5418,-10.71861 -0.43499,-0.46482 -0.63913,-0.87469 -0.52645,-1.05702 0.11153,-0.18036 0.0855,-0.23689 -0.0659,-0.14336 -0.31101,0.19223 -2.06995,-2.05527 -2.60784,-3.33218 -0.51826,-1.23029 -0.52268,-3.20002 -0.01,-3.98408 0.87347,-1.33308 2.83201,-1.65006 4.59242,-0.74327 1.21,0.62328 3.53009,2.9423 3.36751,3.36597 -0.0672,0.17516 -0.0275,0.25991 0.0884,0.18835 0.31326,-0.19361 1.52013,1.49633 1.31869,1.84649 -0.0944,0.16423 -0.0877,0.22288 0.0149,0.13036 0.27152,-0.24464 4.51073,5.27543 4.30588,5.6069 -0.0996,0.16118 -0.0644,0.20993 0.0847,0.11767 0.2427,-0.15 4.51322,5.41595 7.61326,9.92268 0.77173,1.12192 1.50004,2.14787 1.61847,2.27987 0.12762,0.14224 0.19566,-2.13712 0.16704,-5.5967 -0.0388,-4.69124 -0.11562,-5.90399 -0.39123,-6.17963 -0.18862,-0.18862 -0.41818,-0.34295 -0.51013,-0.34295 -0.45759,0 -3.1303,-2.58149 -5.2178,-5.03969 -1.28901,-1.51792 -3.28808,-3.75373 -4.44241,-4.96849 -2.30662,-2.42737 -4.39559,-4.97028 -5.24489,-6.38463 -1.2982,-2.16192 0.0136,-4.9659 2.32322,-4.9659 1.68962,0 5.46065,3.64729 9.99181,9.66397 1.56647,2.08002 2.94338,3.84074 3.05981,3.9127 0.11839,0.0732 0.21169,-1.35081 0.21169,-3.23196 v -3.36278 l -3.1798,-3.19099 c -4.96544,-4.98289 -6.47249,-8.19061 -4.37541,-9.31293 1.62593,-0.87017 4.05077,0.54302 6.78939,3.95677 l 0.76582,0.95462 v -2.07861 c 0,-2.29167 0.18143,-1.85498 -2.77103,-6.67023 -1.79132,-2.92152 -2.0537,-3.50555 -2.19549,-4.88671 -0.10623,-1.03438 -0.0477,-1.30403 0.36291,-1.67453 0.33153,-0.2991 0.65968,-0.38758 1.01697,-0.27417 0.54516,0.17302 3.10669,2.67377 3.10669,3.03297 0,0.11141 0.0932,0.20266 0.20722,0.20266 0.11394,0 0.28063,-1.16094 0.37032,-2.57985 0.16427,-2.59884 0.45899,-4.72336 0.87825,-6.33115 0.44769,-1.71673 2.53579,-1.77239 3.24025,-0.0863 0.54492,1.30415 1.05547,4.29848 1.20676,7.07748 0.0755,1.38592 0.18634,2.67474 0.24642,2.86404 0.0748,0.23565 0.61711,-0.1494 1.71972,-1.221 2.32481,-2.25941 4.00315,-3.40689 4.71996,-3.22698 0.31807,0.0798 0.64125,0.34347 0.71819,0.58588 0.28081,0.88476 -2.23018,5.51768 -2.79974,5.16566 -0.15922,-0.0984 -0.19334,-0.0507 -0.0868,0.12152 0.16946,0.27417 -1.21933,2.07538 -3.28204,4.25672 l -0.93266,0.98629 0.16981,2.31352 c 0.0935,1.27242 0.2034,2.31351 0.24443,2.31351 0.0411,0 1.03002,-0.96731 2.19772,-2.14956 2.11713,-2.14348 3.63097,-3.11416 4.87349,-3.12486 0.91619,-0.008 1.18848,0.43015 1.18265,1.90261 -0.01,2.22199 -1.20625,4.30415 -4.37221,7.60251 -1.02989,1.07296 -2.30218,2.24858 -2.82728,2.61248 l -0.95475,0.66163 v 2.68721 c 0,1.47795 0.0626,2.7499 0.13933,2.82652 0.0766,0.0766 1.11289,-0.93129 2.3028,-2.23985 1.18991,-1.30855 2.25989,-2.31959 2.37777,-2.24674 0.1179,0.0729 0.15554,-0.0207 0.0837,-0.2078 -0.19234,-0.50124 2.60674,-2.93111 4.38483,-3.80648 1.33747,-0.65841 1.57969,-0.70765 2.20603,-0.4482 2.11905,0.87774 1.35697,4.05449 -1.98864,8.28978 -0.72986,0.92394 -2.2763,2.91587 -3.43655,4.4265 -2.27887,2.96709 -4.11059,4.89178 -5.18881,5.45219 -0.44465,0.23112 -0.63122,0.47869 -0.53996,0.71652 0.0767,0.19986 0.13945,2.24444 0.13945,4.54351 0,2.29906 0.0811,4.17475 0.17998,4.16821 0.099,-0.006 0.88195,-0.94716 1.73989,-2.09026 3.24783,-4.3273 10.60499,-13.05922 12.29408,-14.59135 3.27694,-2.97239 5.66212,-4.5482 6.54779,-4.32592 0.90598,0.22739 0.93209,0.92343 0.10526,2.80724 -1.25796,2.86617 -4.21294,7.49992 -4.62167,7.24732 -0.13436,-0.0831 -0.16628,-0.0285 -0.0723,0.12346 0.0955,0.15446 -0.95193,1.77479 -2.42278,3.74807 -2.77499,3.72293 -4.6941,6.45565 -10.09046,14.36836 l -3.4198,5.01444 v 8.97436 c 0,4.93589 0.0462,8.97435 0.10273,8.97435 0.0565,0 1.45625,-0.89093 3.11056,-1.97988 1.65431,-1.08893 4.58356,-2.99649 6.50946,-4.23902 1.92588,-1.24254 3.59226,-2.43047 3.70305,-2.63984 0.1108,-0.20937 0.32067,-1.13664 0.46635,-2.0606 0.14569,-0.92393 0.42056,-2.16586 0.6108,-2.75983 0.67252,-2.09961 3.48176,-10.28543 5.84746,-17.03897 1.31772,-3.76178 2.68527,-7.7492 3.03898,-8.86095 0.88976,-2.79659 1.58419,-4.06983 2.86219,-5.24784 0.86325,-0.79571 1.27893,-1.0103 1.95713,-1.0103 2.2209,0 3.7091,2.12735 3.38846,4.84372 -0.15413,1.30583 -0.60387,2.62275 -4.16478,12.19525 -2.68852,7.22729 -5.22874,13.55642 -5.66107,14.10495 -0.52644,0.66792 0.11381,0.5504 1.31727,-0.2418 0.69847,-0.45977 2.86285,-1.87608 4.80972,-3.14738 l 3.5398,-2.31145 v -0.94124 c 0,-1.38546 0.57905,-4.15367 1.41054,-6.74313 0.40263,-1.25392 1.22217,-4.14304 1.8212,-6.42028 1.80018,-6.84358 2.71775,-9.0973 4.03624,-9.91388 1.46423,-0.90686 3.7049,-0.0807 4.24854,1.56665 0.58688,1.77824 -0.45794,6.28679 -3.08851,13.3276 -0.91233,2.44186 -1.62163,4.47906 -1.57622,4.52711 0.0927,0.0982 1.01935,-0.45246 3.83581,-2.27931 l 1.92814,-1.25064 0.56249,-3.07842 c 1.29652,-7.09566 2.79711,-10.158 4.97755,-10.158 0.60844,0 1.03337,0.19339 1.54149,0.7015 0.61622,0.61623 0.701,0.87146 0.69737,2.09988 -0.004,1.29979 -0.56197,3.91299 -1.15196,5.39345 -0.13925,0.34941 -0.19485,0.69362 -0.12355,0.76492 0.0713,0.0713 0.82825,-0.32257 1.68211,-0.87526 l 1.55247,-1.00492 2.03864,-4.07974 c 2.5862,-5.17553 3.92445,-6.65107 5.3435,-5.89162 0.67417,0.36082 0.65355,1.57171 -0.0626,3.67303 -0.5802,1.70259 -0.564,2.0804 0.0654,1.52456 0.66546,-0.58768 4.3979,-2.56518 6.20535,-3.2877 2.09951,-0.83925 2.78337,-0.87357 3.27995,-0.16462 0.81107,1.15795 0.35188,2.21337 -1.89379,4.35281 -1.21124,1.15393 -4.34972,3.66533 -5.23217,4.18678 -0.36299,0.21447 -0.65997,0.45748 -0.65997,0.54001 0,0.0825 0.62096,0.28732 1.37992,0.45508 2.25035,0.49741 5.18883,1.47342 5.63965,1.87319 0.58712,0.52062 0.53164,1.42129 -0.10863,1.76397 -1.08169,0.57892 -9.53865,0.18292 -11.42712,-0.53508 -0.46919,-0.1784 -0.89118,0.0129 -2.57608,1.16779 -1.10824,0.75962 -2.01772,1.45237 -2.02107,1.53943 -0.004,0.0871 0.77686,0.28918 1.7338,0.44913 3.6296,0.60669 5.99739,1.63501 6.67343,2.89821 0.37689,0.70424 -0.27881,1.58163 -1.65398,2.21313 -0.91809,0.42161 -1.55177,0.51129 -3.51954,0.49807 -2.61206,-0.0176 -6.22986,-0.6095 -8.21641,-1.34436 -0.69125,-0.2557 -1.3932,-0.38782 -1.5599,-0.2936 -1.72569,0.97543 -4.22139,2.86436 -3.96865,3.00377 0.16816,0.0927 1.76368,0.39984 3.54558,0.68239 6.68905,1.06064 9.83941,2.38995 9.83941,4.15183 0,1.01184 -0.38256,1.57082 -1.38858,2.02899 -2.00363,0.91249 -14.91648,0.18814 -18.4699,-1.03606 -0.95677,-0.32962 -1.87471,-0.51936 -2.03988,-0.42164 -0.16517,0.0977 -1.84543,1.20333 -3.73392,2.45694 -2.19649,1.45806 -3.32055,2.33891 -3.11982,2.44479 0.1726,0.091 1.23175,0.23663 2.35368,0.32357 3.66797,0.28425 15.35583,1.82281 17.69179,2.32892 3.7606,0.81476 7.56557,2.17965 8.19685,2.9403 0.58518,0.7051 0.14372,1.54298 -0.99255,1.88383 -1.34136,0.40237 -11.28568,0.41189 -17.09655,0.0164 -2.37586,-0.16171 -8.0514,-0.41782 -12.61229,-0.56915 l -8.29256,-0.27513 -4.18669,2.74799 c -2.30269,1.51138 -5.39671,3.49573 -6.8756,4.40967 -1.4789,0.91394 -2.68979,1.7697 -2.69087,1.90169 -9.1e-4,0.13199 0.925,0.88795 2.05798,1.67989 1.13297,0.79196 4.28775,3.04033 7.01061,4.99637 4.4285,3.18136 5.02659,3.5405 5.67061,3.40524 2.59994,-0.54608 4.85415,-0.6878 21.11872,-1.32774 3.43181,-0.13503 7.42756,-0.34984 8.87948,-0.47736 5.37809,-0.47238 8.27949,0.83334 8.27949,3.726 0,1.29579 -0.5982,2.06445 -2.22671,2.86121 -1.91959,0.93916 -4.05547,1.08588 -16.79176,1.1534 -6.43439,0.0341 -11.69908,0.083 -11.69929,0.10851 -4.8e-4,0.0548 2.40351,1.83662 6.19026,4.58829 2.08797,1.51724 2.80484,1.92073 3.11982,1.75602 0.72561,-0.37943 2.89489,-0.748 5.88685,-1.00018 1.60688,-0.13543 4.43351,-0.45088 6.2814,-0.70098 4.4959,-0.60852 7.74284,-0.82228 9.3809,-0.61762 1.76654,0.22071 2.9456,1.22294 3.13951,2.66863 0.41309,3.07984 -2.32688,4.07751 -12.16044,4.42783 -3.23381,0.11526 -5.9735,0.21426 -6.0882,0.22013 -0.11478,0.006 1.01196,0.89391 2.50372,1.97344 l 2.7123,1.96278 2.41597,-0.42658 c 7.11979,-1.25715 10.25013,-1.01346 11.03752,0.85921 0.33154,0.7885 0.30691,1.08004 -0.17602,2.08317 -0.50352,1.04596 -3.2286,1.95814 -5.84976,1.95814 -0.56972,0 -1.03243,0.0809 -1.02824,0.17998 0.005,0.099 0.73315,0.67703 1.6199,1.28451 1.78667,1.22399 2.13889,1.31085 6.7388,1.66196 2.4567,0.18751 3.25958,0.34659 4.28762,0.84956 2.40648,1.17738 1.89713,2.58788 -1.10526,3.06064 -0.94011,0.14803 -1.70928,0.35325 -1.70928,0.45602 0,0.10273 0.0959,0.18687 0.21293,0.18687 0.42666,0 2.87541,2.5509 3.02645,3.15269 0.30666,1.22177 -1.03972,3.19651 -1.8415,2.70097 -0.16682,-0.1031 -0.20584,-0.0609 -0.10093,0.10887 0.23224,0.37577 -1.06888,0.36625 -1.94566,-0.0142 -0.36919,-0.16019 -1.52259,-0.81177 -2.5631,-1.44794 -1.04052,-0.63617 -1.93781,-1.11072 -1.99396,-1.05457 -0.0561,0.0561 0.0513,1.16672 0.23859,2.46789 0.43613,3.0284 0.29104,5.52255 -0.34094,5.86076 -0.96797,0.51805 -1.58024,-0.32972 -3.11303,-4.31032 -0.82358,-2.13879 -1.62359,-5.26918 -1.71328,-6.70403 -0.0629,-1.00565 -0.1342,-1.09132 -2.17397,-2.61075 -1.15993,-0.86404 -2.15844,-1.52152 -2.21888,-1.46106 -0.0605,0.0605 0.10562,1.28313 0.36906,2.71703 0.81128,4.41568 0.52672,7.11943 -0.76499,7.26866 -1.44566,0.167 -3.08159,-1.41884 -4.00195,-3.87942 -0.81232,-2.17175 -1.52512,-5.93731 -1.56012,-8.2417 l -0.0336,-2.20729 -1.19994,-0.86085 c -0.65996,-0.47346 -1.17025,-0.97311 -1.13398,-1.11034 0.0363,-0.13721 -0.0466,-0.17991 -0.18425,-0.0949 -0.1376,0.0851 -0.67221,-0.17962 -1.18799,-0.58814 -0.5158,-0.40852 -0.98496,-0.65905 -1.04259,-0.55676 -0.0576,0.10237 0.19966,1.64391 0.57174,3.4258 1.28823,6.1693 1.50049,7.84352 1.21486,9.58211 -0.19784,1.20432 -0.40632,1.70488 -0.88173,2.1172 -1.83664,1.59281 -3.86857,-0.4591 -5.38064,-5.43357 -3.25887,-10.72121 -3.58701,-12.17231 -3.18199,-14.07131 l 0.23051,-1.0808 -1.95152,-1.36072 c -1.07334,-0.74842 -2.84559,-2.00365 -3.93837,-2.78943 -1.09276,-0.78578 -2.0419,-1.37362 -2.1092,-1.30631 -0.0673,0.0673 0.10466,0.91911 0.38223,1.89292 1.01472,3.56048 1.20759,4.27738 2.73601,10.17005 2.06128,7.94709 2.5524,10.75002 2.55802,14.59957 0.005,3.35379 -0.12766,3.75933 -1.22903,3.75933 -0.54302,0 -0.80001,-0.21606 -1.35603,-1.13994 -1.61805,-2.68855 -2.93143,-5.94822 -4.85891,-12.05927 -1.66981,-5.29417 -3.18755,-9.7275 -7.01209,-20.48272 l -1.52329,-4.28371 -5.75966,-4.10522 c -3.1678,-2.25788 -5.80399,-4.08285 -5.85819,-4.05549 -0.0542,0.0273 -0.0735,3.14495 -0.0428,6.928 l 0.0558,6.87828 0.58787,0.46242 c 0.32332,0.25433 0.9713,0.85774 1.43994,1.34091 1.09064,1.12447 9.11322,11.13026 13.41683,16.73352 0.79195,1.03111 2.18474,2.74527 3.09509,3.80922 3.33685,3.89992 4.22447,5.44446 4.22447,7.35093 0,2.59402 -2.32326,3.84576 -4.9197,2.65062 -1.15915,-0.53353 -3.31756,-2.79299 -5.30441,-5.55272 -0.80555,-1.11892 -3.0263,-4.08626 -4.93497,-6.59411 -1.90869,-2.50786 -4.38142,-5.85565 -5.49494,-7.43956 l -2.02462,-2.87983 -0.0646,5.50754 c -0.0593,5.05827 -0.03,5.52685 0.35998,5.7442 0.70194,0.39124 2.93552,2.57273 4.20543,4.10734 0.65534,0.79195 2.44861,2.77732 3.98503,4.41193 4.04899,4.30772 5.3288,5.85481 5.17865,6.26011 -0.0718,0.19397 -0.0566,0.27863 0.034,0.18813 0.36193,-0.36194 1.78072,2.05932 1.78072,3.03894 0,1.58745 -1.4315,3.12895 -2.90568,3.12895 -1.11332,0 -2.28058,-0.80389 -4.63059,-3.18908 -1.82729,-1.85463 -2.52094,-2.69032 -6.02292,-7.25611 l -1.91989,-2.50312 -0.067,3.33188 -0.067,3.33188 1.82087,1.68383 c 3.12876,2.89327 6.09907,6.96744 6.10957,8.38012 0.008,1.12948 -1.0042,2.11116 -2.17768,2.11116 -1.14376,0 -3.38684,-1.66617 -5.03484,-3.73992 l -0.70396,-0.88581 v 2.20024 c 0,2.42359 0.045,2.5335 2.96134,7.23082 0.6836,1.10108 1.23251,2.3374 1.40688,3.16874 0.25786,1.22934 0.2423,1.41144 -0.15846,1.85426 -0.2444,0.27008 -0.65084,0.49105 -0.90316,0.49105 -0.65943,0 -2.15638,-1.20422 -2.00084,-1.60956 0.0759,-0.1979 0.0236,-0.27033 -0.12776,-0.17678 -0.14103,0.0872 -0.41589,-0.0693 -0.61083,-0.34752 -0.5695,-0.81307 -0.80676,-0.59302 -0.81288,0.75395 -0.0135,2.96391 -0.85127,4.25974 -2.7541,4.25974 -0.74989,0 -1.23612,-0.15737 -1.68846,-0.54646 z m -3.36149,-81.27203 c 0.0759,-0.12287 0.0464,-0.28011 -0.0659,-0.34942 -0.11213,-0.0693 -0.2039,0.0312 -0.2039,0.2234 0,0.40466 0.0756,0.44001 0.26973,0.12602 z m 29.03049,62.82546 c -0.90702,-0.44021 -1.78189,-2.10245 -1.78189,-3.38558 0,-2.23109 1.19446,-3.57847 3.30309,-3.72599 1.14759,-0.0802 1.51638,-10e-4 2.21659,0.46968 1.74648,1.17685 2.20801,3.60563 1.03032,5.42192 -0.3719,0.57353 -0.95146,1.10703 -1.35574,1.24796 -0.88261,0.30768 -2.75231,0.29233 -3.41237,-0.0281 z m -54.21872,-2.83254 c -2.17938,-0.892 -1.94092,-4.39181 0.34592,-5.07696 1.92014,-0.57528 3.61384,0.64342 3.61384,2.60036 0,0.89866 -0.13167,1.20322 -0.81596,1.88752 -0.65511,0.65512 -0.99806,0.81295 -1.73988,0.80074 -0.50818,-0.008 -1.13995,-0.10358 -1.40392,-0.21166 z m 102.666,-3.87213 c -1.09463,-0.54184 -1.99207,-1.97817 -1.99207,-3.18825 0,-1.66185 1.80218,-3.40715 3.47991,-3.37007 3.71928,0.0821 4.84981,5.06327 1.49484,6.58625 -1.29639,0.58848 -1.74589,0.58429 -2.98268,-0.0279 z m -149.77761,-4.62516 c -2.08664,-1.1579 -1.94406,-5.02916 0.21818,-5.9248 1.56259,-0.64724 3.50509,-0.0877 4.17194,1.20191 0.47864,0.92558 0.46409,2.76424 -0.0284,3.59808 -0.21589,0.36546 -0.69152,0.84109 -1.05697,1.05697 -0.78745,0.46516 -2.52445,0.50081 -3.3047,0.0678 z m 139.93767,-36.60914 c -2.14791,-1.34951 -1.99427,-4.67863 0.26641,-5.77302 1.31353,-0.63587 1.92135,-0.61848 3.12944,0.0895 2.02512,1.18678 2.31639,3.66688 0.62139,5.29081 -0.96476,0.92431 -2.87408,1.11095 -4.01724,0.3927 z M 300.2985,-584.4785 c -3.09694,-1.533 -2.04472,-6.24017 1.39489,-6.24017 3.73867,0 4.57826,5.13397 1.05715,6.46434 -0.94947,0.35873 -1.34809,0.32229 -2.45204,-0.22417 z m 128.35174,-18.7097 c -0.99977,-0.60961 -1.51157,-1.6341 -1.51157,-3.02585 0,-0.97787 0.11634,-1.23642 0.91615,-2.03624 1.02999,-1.02999 1.82137,-1.31239 3.03812,-1.08413 1.87462,0.35169 3.04696,2.27945 2.53729,4.17225 -0.56638,2.10338 -3.11254,3.11261 -4.97999,1.97397 z m -128.13884,-0.87295 c -1.67803,-0.82771 -2.48305,-2.53608 -1.96803,-4.17646 0.35588,-1.13348 0.85155,-1.66392 2.06014,-2.20472 0.86827,-0.3885 1.16689,-0.41539 2.03989,-0.18368 3.1733,0.84223 3.80931,4.82055 1.02271,6.39712 -1.12206,0.63481 -2.10212,0.68693 -3.15471,0.16774 z m 143.30627,-40.48034 c -2.619,-1.46818 -1.95017,-5.27949 1.04454,-5.95235 1.97968,-0.44481 3.65325,0.85443 3.80862,2.95674 0.11453,1.54876 -0.4989,2.68134 -1.7309,3.1961 -1.15152,0.48113 -2.00399,0.42639 -3.12226,-0.20049 z m -155.5101,-1.99191 c -1.57665,-0.8221 -2.28039,-1.97051 -2.28039,-3.7213 0,-1.51058 0.81848,-2.75768 2.26713,-3.45433 1.05257,-0.50619 1.36312,-0.55395 2.35248,-0.36177 2.08523,0.40503 3.30849,1.78292 3.35204,3.77578 0.0237,1.08377 -0.4619,2.42388 -1.11491,3.0769 -1.03914,1.03912 -3.2595,1.37133 -4.57635,0.68472 z m 46.07669,-7.28772 c -1.39934,-0.57087 -2.47279,-2.63614 -2.17871,-4.19171 0.37178,-1.96646 1.72412,-3.12445 3.64887,-3.12445 2.01511,0 3.43744,1.33037 3.61874,3.38477 0.13312,1.5085 -0.65471,3.09663 -1.84534,3.71989 -0.86503,0.45281 -2.40578,0.55329 -3.24356,0.2115 z m 58.19275,-0.46086 c -1.81636,-0.97121 -2.37032,-3.51603 -1.12186,-5.15359 0.80759,-1.0593 2.1413,-1.68173 3.23532,-1.50991 1.17774,0.18498 2.46199,1.08102 2.83752,1.97981 1.35014,3.23132 -1.90611,6.31177 -4.95098,4.68369 z m -29.33147,-36.16637 c -1.29687,-0.70368 -1.82186,-2.9559 -0.97687,-4.19067 0.52501,-0.76717 0.72894,-0.90226 1.81651,-1.20337 1.70147,-0.47105 3.2971,0.86408 3.2971,2.75884 0,2.31035 -2.17818,3.69789 -4.13674,2.6352 z"
           id="path18875" />
        <path
           id="rect19422"
           style="fill:url(#linearGradient20312);fill-opacity:1;stroke-width:26.129;stroke-linecap:square;stroke-opacity:0.992157;paint-order:fill markers stroke"
           d="m -436.70312,64.431641 149.43359,179.791019 c 8.05708,-0.41192 16.2369,1.73326 22.72265,6.66211 0.91318,1.58286 2.46015,0.0402 3.72852,-0.18165 1.27283,-2.13917 2.75032,-4.14085 4.39063,-5.99609 z m -165.67188,0.002 -171.91992,171.921879 c 0.30763,0.4562 0.64009,0.89474 0.92969,1.36328 6.32288,-5.8645 14.91474,-9.2418 23.54492,-9.18359 3.38337,-0.0745 6.64964,0.50475 9.74023,1.58007 z M -836.84961,298.91016 -985.9375,447.99805 -830.80273,603.13281 c -0.5803,-5.20544 0.0291,-10.54418 1.86718,-15.45312 2.1386,-6.16356 6.30213,-11.17717 11.48828,-14.88281 L -921.17188,447.99805 -816.30664,321.82812 c -1.5472,-5.0747 -2.02597,-10.45477 -1.17188,-15.70117 -7.00266,-0.69257 -13.61453,-3.30273 -19.37109,-7.21679 z m 640.20313,5.57812 c -6.84402,5.70419 -15.48189,9.34288 -24.35352,9.97852 1.66141,3.98356 2.51046,8.28629 2.58594,12.60156 l 100.50976,120.92969 -123.61132,148.72461 c 7.27226,6.94447 11.84868,16.70893 11.34765,26.88476 0.33597,0.12778 0.6535,0.2995 0.98633,0.43555 L -53.136719,447.99805 Z m -539.54883,366.06641 c -0.64487,0.72805 -1.28246,1.53909 -2.02149,2.01758 -4.00602,4.07925 -9.05722,6.97705 -14.5039,8.64257 l 150.33398,150.33399 z m 413.61328,23.70508 -114.10742,137.29101 128.08007,-128.08008 c -5.27855,-1.8501 -10.05404,-5.11362 -13.97265,-9.21093 z"
           transform="matrix(0.26458333,0,0,0.26458333,504.81665,-719.32208)" />
      </g>
    </g>
  </g>
  <style
     type="text/css"
     id="style2">
	.st0{fill-rule:evenodd;clip-rule:evenodd;fill:#072324;}
	.st1{fill:none;stroke:#010101;stroke-width:0.5669;stroke-miterlimit:22.9256;}
	.st2{clip-path:url(#SVGID_2_);fill:url(#SVGID_3_);}
	.st3{clip-path:url(#SVGID_5_);fill:url(#SVGID_6_);}
	.st4{clip-path:url(#SVGID_8_);fill:url(#SVGID_9_);}
	.st5{clip-path:url(#SVGID_11_);fill:url(#SVGID_12_);}
	.st6{clip-path:url(#SVGID_14_);fill:url(#SVGID_15_);}
</style>
  <style
     type="text/css"
     id="style2-1">
	.st0{fill-rule:evenodd;clip-rule:evenodd;fill:#808080;}
	.st1{fill-rule:evenodd;clip-rule:evenodd;fill:#FFFFFF;}
	.st2{fill-rule:evenodd;clip-rule:evenodd;fill:#C69292;}
</style>
  <style
     type="text/css"
     id="style2-5">
	.st0{fill-rule:evenodd;clip-rule:evenodd;fill:#808080;}
	.st1{fill-rule:evenodd;clip-rule:evenodd;fill:#FFFFFF;}
	.st2{fill-rule:evenodd;clip-rule:evenodd;fill:#C69292;}
</style>
</svg>
